<?xml version="1.0" encoding="UTF-8" standalone="no"?>
<!DOCTYPE svg PUBLIC "-//W3C//DTD SVG 1.1//EN" "http://www.w3.org/Graphics/SVG/1.1/DTD/svg11.dtd">
<svg width="100%" height="100%" viewBox="0 0 461 325" version="1.1" xmlns="http://www.w3.org/2000/svg" xmlns:xlink="http://www.w3.org/1999/xlink" xml:space="preserve" xmlns:serif="http://www.serif.com/" style="fill-rule:evenodd;clip-rule:evenodd;stroke-linejoin:round;stroke-miterlimit:2;">
    <path d="M50.297,240.197C50.297,240.197 58.864,345.869 246.388,320.343C433.911,294.817 422.308,157.769 422.308,157.769" style="fill:rgb(255,132,0);"/>
    <path d="M369.329,208.2C369.329,208.2 323.096,283.483 253.052,298.232C84.449,333.733 57.897,263.712 57.897,263.712" style="fill:rgb(255,160,0);"/>
    <path d="M42.078,241.805C42.078,241.805 55.791,322.229 275.042,256.338C494.292,190.446 411.017,134.122 411.017,134.122" style="fill:rgb(255,84,0);"/>
    <path d="M60.92,189.349C60.92,189.349 -3.62,206.989 0.16,248.379C3.077,280.328 67.349,226.446 86.174,247.859C98.347,261.706 72.008,278.502 113.335,270.435C154.382,262.423 147.883,284.221 165.264,282.627C182.644,281.033 186.498,261.79 204.753,259.015C223.007,256.24 235.159,276.629 265.75,247.394C284.392,229.579 281.623,238.082 302.954,235.062C317.44,233.011 324.43,215.402 351.658,200.536C372.887,188.945 388.961,201.204 433.083,182.443C457.323,172.135 498.974,113.853 384.403,125.684" style="fill:rgb(134,191,0);"/>
    <path d="M404.562,124.25L404.096,124.259L403.903,124.269L373.978,124.107L52.583,188.726L21.472,208.541L21.428,208.574C21.104,209.737 10.031,254.092 201.573,243.161C349.298,234.732 402.394,128.722 404.562,124.25Z" style="fill:rgb(134,160,0);"/>
    <path d="M50.297,191.276L55.088,218.896C55.088,218.896 126.502,242.292 237.952,213.636C349.402,184.981 392.68,139.403 392.68,139.403L386.347,113.201" style="fill:rgb(183,23,0);"/>
    <path d="M42.499,171.417L42.078,193.793C42.078,193.793 87.906,222.121 225.456,190.114C363.005,158.107 392.68,117.577 392.68,117.577L384.85,91.221" style="fill:rgb(255,0,24);"/>
    <path d="M163.414,13.031C123.878,23.233 14.265,72.398 25.394,162.308C29.627,196.511 165.249,180.128 226.29,164.377C287.332,148.626 403.423,126.794 391.879,70.673C372.229,-24.846 215.283,-0.353 163.414,13.031Z" style="fill:rgb(255,160,0);"/>
    <path d="M334.981,10.196C403.501,92.4 308.735,108.407 208.642,134.658C108.566,160.904 26.887,152.216 24.652,151.97C24.709,155.357 24.96,158.802 25.394,162.308C29.627,196.511 165.249,180.128 226.29,164.377C287.332,148.626 403.423,126.794 391.879,70.673C385.294,38.665 363.292,20.132 334.981,10.196Z" style="fill:rgb(255,130,0);"/>
    <path d="M89.598,111.501C91.149,113.591 113.542,110.118 106.907,98.218C100.372,86.497 88.486,110.003 89.598,111.501Z" style="fill:rgb(255,223,82);"/>
    <path d="M122.447,131.255C123.108,133.257 145.639,126.159 139.618,118.869C132.741,110.542 121.174,127.401 122.447,131.255Z" style="fill:rgb(255,223,82);"/>
    <path d="M162.361,93.866C160.289,93.868 158.506,116.075 167.377,112.838C177.509,109.141 166.349,93.861 162.361,93.866Z" style="fill:rgb(255,223,82);"/>
    <path d="M77.48,136.395C77.026,134.483 62.314,134.789 66.338,142.692C70.934,151.718 78.354,140.076 77.48,136.395Z" style="fill:rgb(255,223,82);"/>
    <path d="M89.598,111.501C91.149,113.591 113.542,110.118 106.907,98.218C100.372,86.497 88.486,110.003 89.598,111.501Z" style="fill:rgb(255,223,82);"/>
    <path d="M134.6,76.089C133.552,75.161 117.765,78.859 122.186,84.332C126.54,89.722 135.351,76.754 134.6,76.089Z" style="fill:rgb(255,223,82);"/>
    <path d="M201.608,68.435C200.566,66.699 176.616,65.436 180.339,74.903C184.006,84.227 202.355,69.678 201.608,68.435Z" style="fill:rgb(255,223,82);"/>
    <path d="M171.516,46.464C171.61,48.486 188.229,61.913 189.761,51.856C191.512,40.355 171.449,45.015 171.516,46.464Z" style="fill:rgb(255,223,82);"/>
    <path d="M229.71,37.021C228.718,35.709 212.89,36.555 216.111,44.3C219.795,53.157 231.204,38.996 229.71,37.021Z" style="fill:rgb(255,223,82);"/>
    <path d="M240.235,58.47C238.771,58.049 227.41,66.265 234.076,70.02C241.7,74.315 242.436,59.103 240.235,58.47Z" style="fill:rgb(255,223,82);"/>
    <path d="M227.322,89.382C224.817,88.196 209.439,95.71 219.852,102.092C228.391,107.325 229.393,90.362 227.322,89.382Z" style="fill:rgb(255,223,82);"/>
    <path d="M204.592,112.036C203.026,110.084 182.133,110.804 191.877,120.573C196.979,125.687 206.026,113.823 204.592,112.036Z" style="fill:rgb(255,223,82);"/>
    <path d="M253.595,93.849C251.172,93.224 228.583,105.09 246.708,107.898C253.847,109.004 255.814,94.421 253.595,93.849Z" style="fill:rgb(255,223,82);"/>
    <path d="M296.069,41.834C291.898,39.592 269.188,42.981 280.962,54.529C287.24,60.687 298.088,42.919 296.069,41.834Z" style="fill:rgb(255,223,82);"/>
    <path d="M285.022,84.788C284.61,87.256 299.743,94.83 295.37,84.509C294.464,82.369 285.31,83.066 285.022,84.788Z" style="fill:rgb(255,223,82);"/>
</svg>
